<?xml version="1.0" standalone="no"?>
<!DOCTYPE svg PUBLIC "-//W3C//DTD SVG 20010904//EN"
 "http://www.w3.org/TR/2001/REC-SVG-20010904/DTD/svg10.dtd">
<svg version="1.0" xmlns="http://www.w3.org/2000/svg"
 width="700.000000pt" height="700.000000pt" viewBox="0 0 700.000000 700.000000"
 preserveAspectRatio="xMidYMid meet">
<metadata>
Created by potrace 1.14, written by Peter Selinger 2001-2017
</metadata>
<g transform="translate(0.000000,700.000000) scale(0.100000,-0.100000)"
fill="#000000" stroke="none">
<path d="M2195 6235 c-49 -17 -90 -62 -104 -112 -7 -24 -11 -222 -11 -550 l0
-513 -633 0 -633 0 -44 -22 c-24 -13 -53 -36 -64 -51 l-21 -28 0 -2052 0
-2052 23 -33 c13 -18 38 -40 55 -50 30 -16 189 -17 2737 -17 2548 0 2707 1
2737 17 17 10 42 32 55 50 l23 33 0 2052 0 2052 -21 28 c-11 15 -40 38 -64 51
l-44 22 -633 0 -633 0 0 513 c0 341 -4 525 -11 552 -14 50 -64 100 -114 114
-28 8 -415 11 -1300 11 -1060 -1 -1266 -3 -1300 -15z m2395 -745 l0 -430
-1090 0 -1090 0 0 430 0 430 1090 0 1090 0 0 -430z m1410 -2585 l0 -1825 -882
1 c-536 0 -874 4 -861 9 13 5 32 24 43 42 17 29 20 51 20 176 0 135 -1 142
-20 142 -11 0 -20 -7 -20 -15 0 -12 -7 -11 -38 5 -72 37 -142 -3 -157 -89 -20
-119 71 -205 161 -152 l37 22 -7 -33 c-10 -53 -40 -71 -108 -65 -46 4 -58 2
-58 -9 0 -8 10 -19 23 -24 13 -5 -604 -9 -1555 -9 l-1578 -1 0 1825 0 1825
2500 0 2500 0 0 -1825z m-1753 -1507 c28 -31 37 -80 23 -123 -13 -38 -35 -55
-74 -55 -63 0 -92 125 -41 175 30 31 65 32 92 3z"/>
<path d="M3300 4145 c-518 -81 -944 -501 -1035 -1019 -19 -112 -20 -328 0
-438 42 -241 156 -466 327 -644 185 -193 403 -313 670 -370 116 -25 361 -25
478 0 450 96 807 409 949 834 44 131 61 243 61 397 0 218 -42 393 -137 578
-247 478 -778 746 -1313 662z m391 -141 c569 -97 969 -617 919 -1194 -44 -498
-400 -893 -905 -1002 -77 -16 -332 -16 -410 0 -573 122 -958 630 -905 1194 27
280 133 505 331 699 256 252 614 364 970 303z"/>
<path d="M3415 3845 l-25 -24 0 -510 0 -510 28 -33 c16 -18 97 -123 182 -233
205 -268 237 -305 262 -305 12 0 38 18 60 40 31 33 38 48 38 80 0 40 10 27
-293 419 l-57 73 0 489 0 490 -25 24 c-20 21 -34 25 -85 25 -51 0 -65 -4 -85
-25z"/>
<path d="M1480 1525 c0 -18 5 -25 20 -25 15 0 20 7 20 25 0 18 -5 25 -20 25
-15 0 -20 -7 -20 -25z"/>
<path d="M1610 1365 l0 -185 25 0 c17 0 25 6 25 17 0 15 1 15 18 0 29 -26 103
-23 129 6 33 35 43 62 43 112 0 50 -16 89 -49 119 -27 25 -94 25 -121 1 -20
-18 -20 -17 -20 48 0 65 -1 67 -25 67 l-25 0 0 -185z m157 40 c49 -34 49 -146
0 -180 -31 -21 -54 -19 -82 10 -21 20 -25 34 -25 80 0 46 4 60 25 80 28 29 51
31 82 10z"/>
<path d="M3370 1365 c0 -178 1 -185 20 -185 18 0 20 7 20 66 l0 66 72 -66 c49
-45 80 -66 97 -66 23 0 18 8 -47 73 l-72 73 71 62 c66 58 69 62 42 62 -20 0
-46 -16 -90 -55 -33 -30 -64 -55 -67 -55 -3 0 -6 47 -6 105 0 98 -1 105 -20
105 -19 0 -20 -7 -20 -185z"/>
<path d="M3650 1525 c0 -20 5 -25 25 -25 20 0 25 5 25 25 0 20 -5 25 -25 25
-20 0 -25 -5 -25 -25z"/>
<path d="M4690 1525 c0 -20 5 -25 25 -25 20 0 25 5 25 25 0 20 -5 25 -25 25
-20 0 -25 -5 -25 -25z"/>
<path d="M1210 1360 l0 -180 110 0 c103 0 110 1 110 20 0 18 -7 20 -85 20
l-85 0 0 160 0 160 -25 0 -25 0 0 -180z"/>
<path d="M2391 1523 c0 -10 19 -90 42 -178 l42 -160 30 -3 31 -3 28 118 c52
213 44 209 86 38 l36 -150 31 -3 30 -3 45 180 46 181 -24 0 c-26 0 -22 9 -70
-184 -16 -62 -30 -102 -34 -95 -4 8 -22 74 -40 147 -31 129 -33 132 -59 132
-26 0 -28 -3 -61 -140 -19 -77 -37 -140 -40 -140 -3 0 -21 63 -40 140 -31 130
-36 140 -57 140 -16 0 -23 -6 -22 -17z"/>
<path d="M4360 1520 c0 -18 6 -20 65 -20 l65 0 0 -160 0 -160 25 0 25 0 0 160
0 160 66 0 c57 0 65 2 62 18 -3 15 -20 17 -156 20 -147 2 -152 2 -152 -18z"/>
<path d="M2008 1441 c-30 -15 -38 -16 -38 -5 0 8 -10 14 -25 14 l-25 0 0 -135
0 -135 25 0 c25 0 25 0 25 94 0 113 14 140 74 140 31 0 36 3 34 20 -4 28 -26
30 -70 7z"/>
<path d="M2193 1450 c-61 -14 -93 -60 -93 -135 0 -89 47 -135 137 -135 68 0
93 9 93 32 0 14 -5 18 -16 14 -36 -14 -91 -17 -117 -7 -27 10 -61 67 -51 83 3
5 48 8 100 8 l94 0 0 30 c0 81 -65 129 -147 110z m82 -55 c45 -44 35 -55 -54
-55 -75 0 -79 1 -74 20 7 28 50 60 80 60 13 0 35 -11 48 -25z"/>
<path d="M2936 1449 c-41 -12 -65 -37 -77 -82 -15 -58 -3 -120 31 -157 24 -26
35 -30 79 -30 64 0 94 19 115 71 21 51 20 84 -3 136 -26 57 -81 80 -145 62z
m69 -35 c38 -15 58 -105 34 -157 -14 -31 -52 -49 -85 -41 -48 12 -70 104 -39
164 19 37 50 49 90 34z"/>
<path d="M3275 1453 c-10 -3 -29 -12 -42 -20 -21 -14 -23 -14 -23 1 0 9 -8 16
-20 16 -19 0 -20 -7 -20 -135 0 -126 1 -135 19 -135 17 0 19 10 23 96 3 91 4
97 32 121 21 17 36 23 53 18 21 -5 24 -3 21 16 -3 24 -13 29 -43 22z"/>
<path d="M3893 1453 c-12 -2 -27 -11 -33 -19 -16 -18 -30 -18 -30 1 0 8 -9 15
-20 15 -19 0 -20 -7 -20 -135 0 -128 1 -135 20 -135 18 0 20 7 20 79 0 43 5
92 11 109 12 34 56 58 89 47 30 -10 40 -44 40 -146 0 -82 1 -89 20 -89 19 0
20 7 20 109 0 100 -2 112 -22 134 -24 26 -58 37 -95 30z"/>
<path d="M4924 1450 c-12 -5 -25 -13 -29 -19 -9 -16 -25 -13 -25 4 0 8 -9 15
-20 15 -19 0 -20 -7 -20 -135 0 -128 1 -135 20 -135 18 0 20 7 20 80 0 46 6
95 14 114 17 41 57 54 92 31 23 -15 24 -21 24 -121 0 -104 0 -105 23 -102 21
3 22 8 25 100 3 91 4 98 29 118 28 22 50 25 73 10 11 -7 16 -36 20 -117 5
-103 6 -108 28 -111 21 -3 22 -1 22 91 0 117 -12 155 -55 173 -38 15 -71 9
-103 -20 -22 -20 -24 -20 -36 -4 -12 16 -58 39 -74 37 -4 0 -17 -4 -28 -9z"/>
<path d="M5383 1450 c-18 -4 -40 -14 -49 -21 -42 -35 -57 -135 -29 -189 21
-40 63 -60 130 -60 61 0 95 13 95 35 0 18 0 18 -55 4 -73 -19 -135 12 -135 66
l0 25 100 0 101 0 -7 38 c-9 49 -20 69 -47 86 -31 19 -67 25 -104 16z m82 -55
c45 -44 34 -55 -50 -55 -67 0 -75 2 -75 19 0 25 46 61 77 61 13 0 35 -11 48
-25z"/>
<path d="M5658 1453 c-15 -2 -37 -16 -48 -30 -41 -53 -16 -103 62 -123 64 -16
68 -18 75 -36 4 -11 -2 -24 -18 -37 -24 -19 -56 -19 -116 -1 -19 5 -23 2 -23
-14 0 -26 18 -32 89 -32 74 0 111 25 111 75 0 42 -31 68 -99 85 -50 12 -65 27
-55 55 9 22 50 29 100 18 40 -9 44 -9 44 9 0 10 -6 20 -12 23 -26 7 -84 12
-110 8z"/>
<path d="M1480 1315 c0 -128 1 -135 20 -135 19 0 20 7 20 135 0 128 -1 135
-20 135 -19 0 -20 -7 -20 -135z"/>
<path d="M3654 1437 c-2 -7 -3 -67 -2 -133 3 -115 4 -119 26 -122 22 -3 22 -3
22 132 0 130 -1 136 -20 136 -11 0 -23 -6 -26 -13z"/>
<path d="M4694 1437 c-2 -7 -3 -67 -2 -133 3 -115 4 -119 26 -122 22 -3 22 -3
22 132 0 130 -1 136 -20 136 -11 0 -23 -6 -26 -13z"/>
</g>
</svg>
